<?xml version="1.0" encoding="UTF-8"?><svg xmlns="http://www.w3.org/2000/svg" viewBox="0 0 72 72"><path d="m65,2.75H7C3.13,2.75,0,5.88,0,9.75v52.5c0,3.87,3.13,7,7,7h58c3.87,0,7-3.13,7-7V9.75c0-3.87-3.13-7-7-7Zm.2,56.84c0,1.19-.96,2.15-2.15,2.15H8.8c-1.19,0-2.15-.96-2.15-2.15V20.15c0-1.19.96-2.15,2.15-2.15h54.24c1.19,0,2.15.96,2.15,2.15v39.44Z"/><path d="m15.87,52.71h0c-1.17-1.17-1.17-3.07,0-4.24l6.37-6.37c.21-.21.21-.54,0-.75l-6.43-6.43c-1.17-1.17-1.17-3.07,0-4.24h0c1.17-1.17,3.07-1.17,4.24,0l8.95,8.95c1.16,1.16,1.16,3.03,0,4.19l-8.9,8.9c-1.17,1.17-3.07,1.17-4.24,0Z"/><rect x="33.08" y="47.75" width="23.66" height="6" rx="3" ry="3"/></svg>