<?xml version="1.0" encoding="UTF-8"?><svg xmlns="http://www.w3.org/2000/svg" viewBox="0 0 36.91 34.2"><path d="m11.99,25.9l-1.7,6.6c-.13.53-.39.95-.78,1.25s-.83.45-1.33.45c-.77,0-1.38-.28-1.83-.85s-.58-1.22-.38-1.95l1.4-5.5H2.24c-.77,0-1.37-.28-1.8-.83-.43-.55-.55-1.21-.35-1.98.13-.5.39-.92.78-1.25.38-.33.84-.5,1.38-.5h6.3l2.15-8.55h-5.15c-.77,0-1.37-.28-1.8-.83s-.55-1.21-.35-1.98c.13-.5.39-.92.78-1.25s.84-.5,1.38-.5h6.3l1.6-6.55c.13-.53.39-.95.78-1.25s.84-.45,1.38-.45c.73,0,1.32.28,1.75.85s.57,1.18.4,1.85l-1.3,5.55h8.5l1.6-6.55c.13-.53.39-.95.78-1.25s.84-.45,1.38-.45c.73,0,1.32.28,1.75.85s.57,1.18.4,1.85l-1.3,5.55h5.15c.73,0,1.32.28,1.75.85s.57,1.22.4,1.95c-.17.53-.44.96-.83,1.28s-.83.48-1.33.48h-6.3l-2.15,8.55h5.15c.73,0,1.32.28,1.75.85s.57,1.22.4,1.95c-.17.53-.44.96-.83,1.28s-.83.48-1.33.48h-6.3l-1.7,6.6c-.13.53-.39.95-.78,1.25s-.83.45-1.33.45c-.77,0-1.38-.28-1.83-.85s-.58-1.22-.38-1.95l1.4-5.5h-8.5Zm1.15-4.55h8.5l2.15-8.55h-8.5l-2.15,8.55Z"/></svg>