<?xml version="1.0" encoding="UTF-8"?><svg xmlns="http://www.w3.org/2000/svg" viewBox="0 0 89.14 89.14"><path d="m22.38,18.47l-8.4,50.63c-.48,2.92,1.77,5.58,4.73,5.58h57.23c2.35,0,4.35-1.7,4.73-4.01l8.4-50.63c.48-2.92-1.77-5.58-4.73-5.58H27.11c-2.35,0-4.35,1.7-4.73,4.01Zm48.9,49.95H25.46c-2.96,0-5.22-2.66-4.73-5.58l4.34-26.14c.38-2.31,2.39-4.01,4.73-4.01h45.82c2.96,0,5.22,2.66,4.73,5.58l-4.34,26.14c-.38,2.31-2.39,4.01-4.73,4.01Z"/><path d="m67,41.51h-30.96c-1.52,0-2.81,1.1-3.06,2.59l-1.96,11.83c-.31,1.89,1.14,3.61,3.06,3.61h30.96c1.52,0,2.81-1.1,3.06-2.59l1.96-11.83c.31-1.89-1.14-3.61-3.06-3.61Z"/><rect y="32.65" width="12.8" height="6" rx="3" ry="3"/><rect y="44.68" width="11.04" height="6" rx="3" ry="3"/><rect y="56.54" width="9.1" height="6" rx="3" ry="3"/></svg>