<?xml version="1.0" encoding="UTF-8"?><svg xmlns="http://www.w3.org/2000/svg" viewBox="0 0 36.65 36.65"><path d="m6.81,36.65c-1.89,0-3.5-.66-4.82-1.99-1.33-1.33-1.99-2.93-1.99-4.81s.66-3.51,1.99-4.84c1.33-1.34,2.93-2,4.81-2h3.2v-9.35h-3.2c-1.88,0-3.48-.66-4.81-1.99-1.33-1.33-1.99-2.93-1.99-4.81S.66,3.34,1.99,2C3.32.67,4.93,0,6.81,0s3.51.67,4.84,2.01c1.34,1.34,2,2.95,2,4.84v3.15h9.35v-3.15c0-1.89.66-3.51,1.99-4.84,1.33-1.34,2.93-2.01,4.81-2.01s3.51.67,4.84,2c1.34,1.34,2,2.95,2,4.84s-.67,3.5-2.01,4.82c-1.34,1.33-2.95,1.99-4.84,1.99h-3.15v9.35h3.15c1.89,0,3.51.67,4.84,2,1.34,1.33,2.01,2.95,2.01,4.83s-.67,3.5-2,4.82c-1.34,1.33-2.95,1.99-4.84,1.99s-3.5-.66-4.82-1.99c-1.33-1.33-1.99-2.93-1.99-4.81v-3.2h-9.35v3.2c0,1.88-.67,3.48-2,4.81-1.33,1.33-2.95,1.99-4.83,1.99Zm0-3.65c.88,0,1.63-.31,2.25-.93.62-.62.94-1.37.94-2.25v-3.18h-3.18c-.88,0-1.63.31-2.25.93-.62.62-.93,1.38-.93,2.26s.31,1.62.92,2.23c.61.62,1.36.92,2.24.92Zm23,0c.88,0,1.63-.31,2.25-.92.62-.61.94-1.36.94-2.24s-.31-1.63-.93-2.25-1.37-.94-2.25-.94h-3.18v3.18c0,.88.31,1.63.92,2.25.61.62,1.36.93,2.24.93Zm-16.16-10h9.35v-9.35h-9.35v9.35Zm-6.83-13h3.18v-3.18c0-.88-.31-1.63-.93-2.25s-1.38-.93-2.26-.93-1.62.31-2.23.93c-.62.62-.92,1.38-.92,2.26s.31,1.62.93,2.23c.62.62,1.37.92,2.25.92Zm19.83,0h3.18c.88,0,1.63-.31,2.25-.92.62-.61.93-1.36.93-2.24s-.31-1.63-.93-2.25c-.62-.62-1.38-.94-2.26-.94s-1.62.31-2.23.93c-.62.62-.92,1.37-.92,2.25v3.18Z"/></svg>