<?xml version="1.0" encoding="UTF-8"?><svg xmlns="http://www.w3.org/2000/svg" viewBox="0 0 100 100"><path d="m98.65,14.68c-1.88-2.34-5.22-2.64-7.92-2.66-7.86-.02-57.57-.02-64.77,0-8,.02-11.16,2.54-12.96,10.34C8.82,40.38,4.66,58.42.54,76.46c-.62,2.74-1.1,6.22.84,8.66,1.98,2.48,5.58,2.82,8.5,2.82,10.32.04,53.31.04,64.75,0,7.1-.02,10.94-3.02,12.48-9.76,4.56-19.96,8.62-38.04,12.4-55.28.58-2.6,1-5.9-.86-8.22ZM29.52,76.56c-2.4,1.76-4.68,2.22-6.6-.4-2.14-2.9-.16-4.62,2.04-6.24,7.92-5.78,15.82-11.6,23.68-17.44,1.1-.82,2.54-1.94,3.48-2.64-1.22-1.38-2.24-2.52-3.06-3.46-4.86-5.46-9.32-10.54-14.14-15.74-2.2-2.38-2.9-4.68-.26-7.04,2.62-2.32,5.2-2.12,7.58.56,6.68,7.44,13.36,14.88,20.14,22.2,2.54,2.74,1.96,4.6-.84,6.64-10.72,7.78-21.38,15.66-32.02,23.56Zm34.98-.56h-19c-2.26,0-3.5-2-3.5-4s1.24-4,3.5-4h19c2.26,0,3.5,2,3.5,4s-1.24,4-3.5,4Z"/></svg>