<?xml version="1.0" encoding="UTF-8"?><svg xmlns="http://www.w3.org/2000/svg" viewBox="0 0 36.9 36.9"><path d="m18.27,36.9c-.5,0-.91-.15-1.23-.45s-.48-.72-.48-1.25v-2.6c-1.73-.27-3.18-.86-4.33-1.78s-2.06-2.06-2.73-3.43c-.27-.43-.26-.92.03-1.45s.69-.93,1.23-1.2c.43-.1.89-.08,1.38.08s.91.49,1.28,1.03c.57,1.03,1.3,1.78,2.2,2.25s1.88.7,2.95.7c1.5,0,2.71-.35,3.63-1.05s1.38-1.63,1.38-2.8c0-1.33-.47-2.39-1.4-3.18s-2.68-1.58-5.25-2.38c-2.3-.67-4.05-1.68-5.25-3.05-1.2-1.37-1.8-3.05-1.8-5.05,0-1.73.54-3.26,1.63-4.58s2.78-2.14,5.08-2.48V1.65c0-.5.16-.9.48-1.2s.73-.45,1.23-.45.91.15,1.23.45c.32.3.48.7.48,1.2v2.6c1.13.23,2.22.63,3.25,1.18s1.88,1.31,2.55,2.28c.27.43.31.91.13,1.43s-.56.89-1.13,1.13c-.4.17-.85.18-1.35.03s-.98-.44-1.45-.88-1.02-.78-1.65-1.05c-.63-.27-1.33-.4-2.1-.4-1.43,0-2.52.28-3.25.85s-1.1,1.37-1.1,2.4.41,1.93,1.23,2.68,2.63,1.54,5.43,2.38c2.33.8,4.08,1.88,5.23,3.23s1.76,3.11,1.83,5.28c0,2.17-.64,3.93-1.93,5.3-1.28,1.37-3.18,2.23-5.68,2.6v2.55c0,.53-.17.95-.5,1.25-.33.3-.73.45-1.2.45Z"/></svg>