<?xml version="1.0" encoding="UTF-8"?><svg xmlns="http://www.w3.org/2000/svg" viewBox="0 0 42.25 42.25"><path d="m11.65,24.9v1.05c0,.43.13.78.4,1.05.27.27.62.4,1.05.4s.79-.13,1.08-.4c.28-.27.42-.62.42-1.05v-5.05c0-.43-.14-.79-.42-1.08-.28-.28-.64-.42-1.08-.42s-.78.14-1.05.42c-.27.28-.4.64-.4,1.08v1h-1.55c-.43,0-.78.14-1.05.42-.27.28-.4.64-.4,1.08s.15.77.44,1.06c.29.29.65.44,1.06.44h1.5Zm7.45,0h13c.43,0,.79-.15,1.08-.44.28-.29.42-.65.42-1.06s-.14-.77-.42-1.06c-.28-.29-.64-.44-1.08-.44h-13c-.42,0-.78.14-1.07.42-.29.28-.43.64-.43,1.08s.15.77.44,1.06c.29.29.65.44,1.06.44Zm11.5-9.05h1.5c.43,0,.79-.15,1.08-.46.28-.31.42-.67.42-1.08,0-.38-.14-.72-.42-1.04-.28-.31-.64-.47-1.08-.47h-1.5v-1c0-.39-.14-.74-.42-1.04-.28-.3-.64-.46-1.08-.46s-.78.15-1.05.46c-.27.3-.4.65-.4,1.04v5c0,.42.13.79.4,1.09.27.3.62.46,1.05.46s.79-.15,1.08-.46c.28-.3.42-.67.42-1.09v-.95Zm-20.45,0h13c.41,0,.76-.15,1.06-.46.29-.31.44-.67.44-1.08,0-.38-.15-.72-.44-1.04-.3-.31-.65-.47-1.06-.47h-13.05c-.43,0-.78.15-1.05.46-.27.31-.4.66-.4,1.05s.15.77.44,1.08c.29.31.65.46,1.06.46Zm-5.6,20.4c-1.25,0-2.32-.45-3.21-1.34-.89-.89-1.34-1.96-1.34-3.21V6.65c0-1.26.45-2.34,1.34-3.25.89-.9,1.96-1.35,3.21-1.35h33.1c1.26,0,2.34.45,3.25,1.35.9.9,1.35,1.98,1.35,3.25v25.05c0,1.25-.45,2.32-1.35,3.21-.9.89-1.98,1.34-3.25,1.34h-8.5v1.65c0,.7-.23,1.26-.69,1.68-.46.42-1,.63-1.61.63h-11.45c-.65,0-1.2-.21-1.64-.63-.44-.42-.66-.98-.66-1.68v-1.65H4.55Zm0-4.55h33.1V6.65H4.55v25.05Zm0,0V6.65v25.05Z"/></svg>