<?xml version="1.0" encoding="UTF-8"?><svg xmlns="http://www.w3.org/2000/svg" viewBox="0 0 72 72"><path d="m35.96,0c-4.95.02-8.96,4.04-8.96,9,0,2.8,1.29,4.96,2.68,7.07,1.28,1.95-.33,4.51-2.64,4.22-6.84-.85-13.76-2.16-13.76-2.16h0c-.42-.09-.84-.13-1.27-.13-3.31,0-6,2.69-6,6v14.48c0,2.73,3.02,4.43,5.31,2.95,2.2-1.42,4.49-2.66,7.54-2.38,3.77.34,7.06,3.15,7.91,6.83,1.34,5.9-3.1,11.13-8.76,11.13-2.61,0-4.66-1.12-6.63-2.4-2.32-1.49-5.37.15-5.37,2.91v7.19c0,4.63,2.68,7.3,6,7.3h48c3.31,0,6-2.69,6-6V24c0-3.31-2.69-6-6-6-.43,0-.85.05-1.27.14h-.01s-6.92,1.3-13.76,2.15c-2.32.29-3.91-2.28-2.63-4.24,1.52-2.32,2.93-4.71,2.62-7.94-.35-3.75-3.16-7.04-6.83-7.88C37.39.07,36.67,0,35.96,0Z"/></svg>