<?xml version="1.0" encoding="UTF-8"?><svg xmlns="http://www.w3.org/2000/svg" viewBox="0 0 41.85 41.85"><path d="m3.77,41.85c-.98,0-1.83-.36-2.56-1.09-.73-.73-1.09-1.58-1.09-2.56v-19.55c0-.96.36-1.8,1.09-2.54.73-.74,1.58-1.11,2.56-1.11h5.15V3.65c0-.96.37-1.8,1.11-2.54.74-.74,1.59-1.11,2.54-1.11h25.5c.96,0,1.8.37,2.54,1.11.74.74,1.11,1.59,1.11,2.54v19.55c0,.96-.37,1.81-1.11,2.54-.74.74-1.59,1.11-2.54,1.11h-5.1v11.35c0,.98-.37,1.83-1.11,2.56-.74.73-1.59,1.09-2.54,1.09H3.77Zm1.5-3.65h22.54c.83,0,1.5-.67,1.5-1.5v-12.89c0-.83-.67-1.5-1.5-1.5H5.28c-.83,0-1.5.67-1.5,1.5v12.89c0,.83.67,1.5,1.5,1.5Zm27.7-15h3.6c.83,0,1.5-.67,1.5-1.5v-12.89c0-.83-.67-1.5-1.5-1.5H14.08c-.83,0-1.5.67-1.5,1.5v6.2h16.4c1.13,0,2.08.39,2.85,1.16.77.77,1.15,1.72,1.15,2.84v4.2Z"/></svg>