<?xml version="1.0" encoding="UTF-8"?><svg xmlns="http://www.w3.org/2000/svg" viewBox="0 0 84 84"><path d="m34,0c-5.52,0-10,4.48-10,10v6H8c-4.42,0-8,3.58-8,8v12c0,2.21,1.79,4,4,4h1.43c5.23,0,9.99,3.76,10.52,8.97.6,5.99-4.08,11.03-9.95,11.03h-2c-2.21,0-4,1.79-4,4v12c0,4.42,3.58,8,8,8h12c2.21,0,4-1.79,4-4v-1.43c0-5.23,3.76-9.99,8.97-10.52,5.99-.6,11.03,4.08,11.03,9.95v2c0,2.21,1.79,4,4,4h12c4.42,0,8-3.58,8-8v-16h6c5.52,0,10-4.48,10-10s-4.48-10-10-10h-6v-16c0-4.42-3.58-8-8-8h-16v-6c0-5.52-4.48-10-10-10Z"/></svg>