<?xml version="1.0" encoding="UTF-8"?>
<svg id="bg-pentagon" class="bg-shape" xmlns="http://www.w3.org/2000/svg" viewBox="0 0 78.04 75">
    <path d="m58.19,75H19.85c-3.48,0-6.53-2.22-7.61-5.53L.39,33.01c-1.07-3.31.09-6.9,2.91-8.94L34.32,1.53c2.81-2.04,6.59-2.04,9.4,0l31.02,22.53c2.81,2.04,3.98,5.64,2.91,8.95l-11.85,36.46c-1.07,3.31-4.13,5.53-7.61,5.53ZM39.02,6c-.41,0-.82.13-1.18.38L6.83,28.92c-.7.51-1,1.41-.73,2.24l11.85,36.46c.27.83,1.03,1.38,1.9,1.38h38.34c.87,0,1.63-.55,1.9-1.38l11.85-36.46c.27-.83-.02-1.73-.73-2.24L40.19,6.39c-.35-.25-.76-.38-1.17-.38Z" />
</svg>
