<svg xmlns="http://www.w3.org/2000/svg" viewBox="0 0 67.4 67.4">
    <path d="m33.7,0C15.09,0,0,15.09,0,33.7s15.09,33.7,33.7,33.7,33.7-15.09,33.7-33.7S52.31,0,33.7,0Zm23,24.71v23.49c0,1.38-1.12,2.5-2.5,2.5h-6.5c-.55,0-1-.45-1-1v-17.6h0l-2,1.46-10.41,7.69c-.35.26-.84.26-1.19,0l-10.41-7.69-2-1.48h0v17.61c0,.55-.45,1-1,1h-6.5c-1.38,0-2.5-1.12-2.5-2.5v-27.09c0-1.51.62-2.87,1.61-3.85,1.48-1.46,3.86-1.52,5.53-.28l2.73,2.02h.01l.12.09,2,1.48,11,8.13,11-8.13,2-1.48.12-.09,2.88-2.12c1.66-1.22,3.96-1.05,5.42.4.98.98,1.58,2.34,1.58,3.83v3.6h0Z"/>
</svg>
