<svg xmlns="http://www.w3.org/2000/svg" viewBox="0 0 546.7 704.46"><path d="m546.7,452.68v-72.99c0-77.34-36.5-122.54-98.77-123.21-7.7-24.44-27.79-39.51-55.92-39.51-9.38,0-19.08,1.67-29.13,5.02-8.71-27.12-30.8-43.53-59.93-43.53-7.7,0-15.74,1-23.77,3.35v-111.5C279.18,28.13,251.06,0,211.55,0c-39.84,0-67.97,28.13-67.97,70.31v279.58c0,1.67-1.01,3.01-2.68,3.01-1.34,0-2.34-1.01-2.68-2.34l-22.43-53.57c-14.73-34.82-44.87-48.21-76.34-36.83-35.16,13.06-48.21,47.21-33.48,89.4l58.93,165.74c44.53,125.56,127.23,189.17,245.42,189.17,141.63,0,236.38-95.09,236.38-251.78Zm-440.96,48.21l-59.26-165.4c-6.36-17.41-1.67-30.47,11.72-35.49,12.72-5.02,24.44,2.68,30.8,17.08l45.54,101.78c7.37,16.74,17.75,22.1,29.46,22.1,14.06,0,24.11-11.05,24.11-26.45V67.3c0-14.06,9.71-24.11,23.44-24.11,13.73,0,23.1,10.04,23.1,24.11v247.77c0,11.72,10.05,20.76,21.76,20.76s20.76-9.04,20.76-20.76v-89.06c5.69-2.68,13.39-4.35,20.09-4.35,16.74,0,26.79,10.71,26.79,28.46v77.68c0,12.39,10.04,20.76,21.43,20.76s21.09-8.37,21.09-20.76v-63.28c5.69-2.68,13.39-4.35,19.75-4.35,17.08,0,26.79,11.05,26.79,28.46v52.23c0,12.39,10.38,20.42,21.76,20.42s20.76-8.04,20.76-20.42v-38.5c29.8,0,46.88,30.8,46.88,84.04v60.94c0,134.6-72.32,210.94-190.51,210.94-93.75,0-165.4-43.19-206.25-157.37Z"/></svg>