<svg xmlns="http://www.w3.org/2000/svg" viewBox="0 0 47.2 47.2">
    <path d="m44.6,34.36c1.66-3.23,2.6-6.89,2.6-10.76s-.94-7.54-2.6-10.76h0s0,0,0,0c-2.26-4.39-5.84-7.98-10.24-10.24,0,0,0,0,0,0h0c-3.23-1.66-6.89-2.6-10.76-2.6s-7.54.94-10.76,2.6h0s0,0,0,0c-4.39,2.26-7.98,5.84-10.24,10.24,0,0,0,0,0,0h0c-1.66,3.23-2.6,6.89-2.6,10.76s.94,7.54,2.6,10.76h0s0,0,0,0c2.26,4.39,5.84,7.98,10.24,10.24,0,0,0,0,0,0h0c3.23,1.66,6.89,2.6,10.76,2.6s7.54-.94,10.76-2.6h0s0,0,0,0c4.39-2.26,7.98-5.84,10.24-10.24,0,0,0,0,0,0h0Zm-16.5-10.8h-.08c-2.42,0-3.42,2.06-3.42,4.04v10h-6v-19h6v2.56s1.93-2.56,5.81-2.56,7.19,2.73,7.19,8.26v10.74h-6v-10c0-2-1-4-3.5-4.04Zm-15.5-7.96c-1.8,0-3-1.13-3-2.53s1.2-2.47,3-2.47,2.93,1.07,3,2.47c0,1.4-1.12,2.53-3,2.53Zm3,3v19h-6v-19h6Z"/>
</svg>
