<svg xmlns="http://www.w3.org/2000/svg" viewBox="0 0 46 46">
    <path d="m23,0c12.7,0,23,10.3,23,23s-10.3,23-23,23S0,35.7,0,23,10.3,0,23,0Zm10.96,34.93c.55-1.7,3.15-18.67,3.48-22.02.1-1.01-.22-1.69-.85-1.99-.76-.36-1.88-.18-3.18.29-1.79.64-24.63,10.34-25.95,10.9-1.25.53-2.43,1.11-2.43,1.95,0,.59.35.92,1.32,1.27,1,.36,3.54,1.13,5.03,1.54,1.44.4,3.08.05,4-.52.97-.6,12.21-8.12,13.01-8.78.81-.66,1.45.18.79.84s-8.37,8.14-9.39,9.18c-1.23,1.26-.36,2.56.47,3.08.95.6,7.75,5.16,8.77,5.89,1.02.73,2.06,1.06,3.01,1.06s1.45-1.25,1.93-2.71v.02Z"/>
</svg>
