<?xml version="1.0" encoding="UTF-8"?><svg xmlns="http://www.w3.org/2000/svg" viewBox="0 0 41.6 41.6"><path d="m12.75,38.86v-1.06c0-.16.06-.31.17-.42l3.18-3.22c.37-.37.1-1.01-.42-1.01H3.65c-.96,0-1.8-.37-2.54-1.11-.74-.74-1.11-1.59-1.11-2.54V5.8c0-.96.37-1.8,1.11-2.54.74-.74,1.59-1.11,2.54-1.11h34.3c.96,0,1.8.37,2.54,1.11.74.74,1.11,1.59,1.11,2.54v23.7c0,.96-.37,1.81-1.11,2.54-.74.74-1.59,1.11-2.54,1.11h-12.03c-.53,0-.79.63-.42,1.01l3.18,3.22c.11.11.17.26.17.42v1.06c0,.33-.27.59-.59.59h-14.92c-.33,0-.59-.27-.59-.59Zm-8.55-13.31h33.16c.3,0,.55-.25.55-.55V6.35c0-.3-.25-.55-.55-.55H4.2c-.3,0-.55.25-.55.55v18.65c0,.3.25.55.55.55Z"/></svg>