<?xml version="1.0" encoding="UTF-8"?><svg xmlns="http://www.w3.org/2000/svg" viewBox="0 0 42.4 42.4"><path d="m21.25,42.4c-4.11,0-7.6-1.43-10.48-4.28-2.88-2.85-4.32-6.34-4.32-10.47v-8.65c0-.5.4-.9.9-.9h27.7c.5,0,.9.4.9.9v8.65c0,4.09-1.43,7.57-4.28,10.44-2.85,2.87-6.33,4.31-10.43,4.31ZM7.38,14.45c-.51,0-.93-.42-.9-.93.19-3.34,1.41-6.27,3.67-8.81C12.38,2.21,15.11.64,18.36.02c.54-.11,1.04.34,1.04.89v12.65c0,.5-.4.9-.9.9H7.38Zm15.67-.9V.9c0-.55.5-.99,1.04-.89,3.24.62,5.97,2.18,8.18,4.69,2.24,2.54,3.46,5.48,3.65,8.81.03.51-.4.93-.9.93h-11.07c-.5,0-.9-.4-.9-.9Z"/></svg>