<?xml version="1.0" encoding="UTF-8"?><svg xmlns="http://www.w3.org/2000/svg" viewBox="0 0 576 576"><path d="m512,96H64C28.65,96,0,124.65,0,160v256c0,35.35,28.65,64,64,64h448c35.35,0,64-28.65,64-64V160c0-35.35-28.7-64-64-64Zm16,320c0,8.82-7.18,16-16,16H64c-8.82,0-16-7.18-16-16V160c0-8.82,7.18-16,16-16h448c8.82,0,16,7.18,16,16v256ZM140,184h-24c-6.66,0-12,5.34-12,12v24c0,6.66,5.34,12,12,12h24c6.66,0,12-5.34,12-12v-24c0-6.7-5.3-12-12-12Zm56,48h24c6.66,0,12-5.34,12-12v-24c0-6.66-5.34-12-12-12h-24c-6.66,0-12,5.34-12,12v24c0,6.7,5.3,12,12,12Zm80,0h24c6.66,0,12-5.34,12-12v-24c0-6.66-5.34-12-12-12h-24c-6.66,0-12,5.34-12,12v24c0,6.7,5.3,12,12,12Zm80,0h24c6.66,0,12-5.34,12-12v-24c0-6.66-5.34-12-12-12h-24c-6.66,0-12,5.34-12,12v24c0,6.7,5.3,12,12,12Zm104-48h-24c-6.66,0-12,5.34-12,12v24c0,6.66,5.34,12,12,12h24c6.66,0,12-5.34,12-12v-24c0-6.7-5.3-12-12-12Zm-320,80h-24c-6.66,0-12,5.34-12,12v24c0,6.66,5.34,12,12,12h24c6.66,0,12-5.34,12-12v-24c0-6.7-5.3-12-12-12Zm56,48h24c6.66,0,12-5.34,12-12v-24c0-6.66-5.34-12-12-12h-24c-6.66,0-12,5.34-12,12v24c0,6.7,5.3,12,12,12Zm80,0h24c6.66,0,12-5.34,12-12v-24c0-6.66-5.34-12-12-12h-24c-6.66,0-12,5.34-12,12v24c0,6.7,5.3,12,12,12Zm80,0h24c6.66,0,12-5.34,12-12v-24c0-6.66-5.34-12-12-12h-24c-6.66,0-12,5.34-12,12v24c0,6.7,5.3,12,12,12Zm104-48h-24c-6.66,0-12,5.34-12,12v24c0,6.66,5.34,12,12,12h24c6.66,0,12-5.34,12-12v-24c0-6.7-5.3-12-12-12Zm-60,88h-224c-8.9,0-16,7.1-16,16v16c0,8.88,7.12,16,16,16h224c8.88,0,16-7.12,16-16v-16c0-8.9-7.1-16-16-16Z"/></svg>