<?xml version="1.0" encoding="UTF-8"?><svg xmlns="http://www.w3.org/2000/svg" viewBox="0 0 53.71 53.71"><path d="m5.88,40.27h41.94c1.66,0,3-1.34,3-3V7.31c0-2.21-1.79-3.99-3.99-3.99H6.88c-2.21,0-3.99,1.79-3.99,3.99v29.96c0,1.65,1.34,3,2.99,3Zm3.25-31.95h35.45c.69,0,1.24.56,1.24,1.24v24.46c0,.69-.56,1.24-1.24,1.24H9.13c-.69,0-1.24-.56-1.24-1.24V9.56c0-.69.56-1.24,1.24-1.24Z"/><path d="m52.71,42.11H1c-.55,0-1,.45-1,1v3.7c0,1.98,2.01,3.58,4.49,3.58h44.73c2.48,0,4.49-1.6,4.49-3.58v-3.7c0-.55-.45-1-1-1Zm-19.62,5.14h-12.48c-.55,0-1-.45-1-1s.45-1,1-1h12.48c.55,0,1,.45,1,1s-.45,1-1,1Z"/></svg>