<?xml version="1.0" encoding="UTF-8"?><svg xmlns="http://www.w3.org/2000/svg" viewBox="0 0 178 178"><path d="m144.28,103.6c2.05,1.99,2.52,4.27,1.39,6.85-1.13,2.65-3.08,3.97-5.86,3.97h-37.94l19.97,47.28c.66,1.66.66,3.28,0,4.87s-1.79,2.75-3.38,3.48l-17.58,7.45c-1.66.66-3.28.66-4.87,0s-2.75-1.79-3.48-3.38l-18.97-44.9-30.99,30.99c-1.26,1.26-2.75,1.89-4.47,1.89-.79,0-1.59-.17-2.38-.5-2.65-1.13-3.97-3.08-3.97-5.86V6.36c0-2.78,1.32-4.73,3.97-5.86.79-.33,1.59-.5,2.38-.5,1.79,0,3.28.63,4.47,1.89l101.71,101.71Z"/></svg>