<?xml version="1.0" encoding="UTF-8"?><svg xmlns="http://www.w3.org/2000/svg" viewBox="0 0 72 66"><path d="m0,5.12v55.77c0,2.83,2.29,5.12,5.12,5.12h61.77c2.83,0,5.12-2.29,5.12-5.12V5.12c0-2.83-2.29-5.12-5.12-5.12H5.12C2.29,0,0,2.29,0,5.12Zm61.82,54.71H10.18c-2.21,0-4-1.79-4-4V18.92c0-2.21,1.79-4,4-4h51.63c2.21,0,4,1.79,4,4v36.91c0,2.21-1.79,4-4,4Z"/><rect x="11.5" y="47.69" width="18.93" height="6.25" rx="3.07" ry="3.07"/><rect x="11.5" y="35.64" width="18.93" height="6.25" rx="3.07" ry="3.07"/><rect x="11.5" y="23.58" width="18.93" height="6.25" rx="3.07" ry="3.07"/><rect x="36.03" y="23.58" width="24" height="30.36" rx="5.09" ry="5.09"/></svg>