<?xml version="1.0" encoding="UTF-8"?><svg xmlns="http://www.w3.org/2000/svg" viewBox="0 0 33.6 33.45"><path d="m1.5,15.35h3.3c.43,0,.79.14,1.08.43s.43.64.43,1.08-.14.79-.43,1.08-.64.43-1.08.43H1.5c-.43,0-.79-.14-1.08-.43-.28-.28-.43-.64-.43-1.08s.14-.79.43-1.08c.28-.28.64-.43,1.08-.43Z"/><path d="m4.7,26.9l2.4-2.4c.27-.27.6-.4,1-.4s.73.13,1,.4.4.6.4,1-.13.73-.4,1l-2.4,2.4c-.27.27-.6.4-1,.4s-.73-.13-1-.4-.4-.6-.4-1,.13-.73.4-1Z"/><path d="m7.1,9.05l-2.4-2.4c-.27-.27-.4-.6-.4-1s.13-.73.4-1,.6-.4,1-.4.73.13,1,.4l2.4,2.4c.27.27.4.6.4,1s-.13.73-.4,1-.6.4-1,.4-.73-.13-1-.4Z"/><path d="m29.27,32.92l-9.77-9.77-1.7,5.21c-.08.19-.19.35-.32.47s-.3.18-.5.18-.37-.06-.53-.18-.27-.27-.35-.47l-4.56-15.97c-.08-.27-.09-.52-.03-.73s.19-.4.38-.56.39-.26.58-.32.43-.05.7.03l15.73,4.97c.19.08.35.19.47.32s.18.3.18.5-.05.36-.15.5-.24.24-.44.32l-5.61,1.99,9.71,9.71c.35.35.53.76.53,1.23s-.18.88-.53,1.23l-1.35,1.35c-.35.35-.76.53-1.23.53s-.88-.18-1.23-.53Z"/><path d="m15.8,4.8V1.5c0-.43.14-.79.43-1.08s.64-.43,1.08-.43.79.14,1.08.43.43.64.43,1.08v3.3c0,.43-.14.79-.43,1.08s-.64.43-1.08.43-.79-.14-1.08-.43-.43-.64-.43-1.08Z"/><path d="m25.5,7.05l2.4-2.4c.27-.27.6-.4,1-.4s.73.13,1,.4.4.6.4,1-.13.73-.4,1l-2.4,2.4c-.27.27-.6.4-1,.4s-.73-.13-1-.4-.4-.6-.4-1,.13-.73.4-1Z"/></svg>