<?xml version="1.0" encoding="UTF-8"?><svg xmlns="http://www.w3.org/2000/svg" viewBox="0 0 81.07 79.91"><path d="m64.52,19.88h8.33c1.27,0,2.05-1.43,1.32-2.47-3.37-4.85-7.53-8.52-11.39-11.21-2.18-1.52-4.96.82-3.79,3.22,1.12,2.29,2.18,5.11,3.08,8.57.29,1.12,1.3,1.91,2.46,1.91Z"/><path d="m64.48,39.96c0,3.34-.13,6.4-.36,9.21-.12,1.48,1.04,2.75,2.53,2.75h10.75c1.17,0,2.19-.79,2.47-1.93.77-3.06,1.2-6.4,1.2-10.04s-.45-7.07-1.24-10.17c-.29-1.13-1.3-1.92-2.47-1.92h-10.73c-1.49,0-2.65,1.27-2.53,2.76.24,2.85.37,5.95.37,9.33Z"/><path d="m64.56,59.91c-1.16,0-2.17.79-2.46,1.91-.89,3.51-1.97,6.36-3.1,8.67-1.17,2.39,1.6,4.74,3.79,3.22,3.89-2.71,8.08-6.42,11.46-11.33.72-1.04-.06-2.47-1.32-2.47h-8.37Z"/><path d="m51.33,19.88c1.71,0,2.93-1.66,2.43-3.3-2.86-9.41-7.2-13.72-10.12-15.65-1.87-1.24-4.28-1.25-6.16-.02-2.93,1.91-7.3,6.21-10.18,15.67-.5,1.64.72,3.3,2.43,3.3h21.59Z"/><path d="m29.74,59.91c-1.71,0-2.93,1.66-2.43,3.3,2.92,9.64,7.39,13.96,10.32,15.85,1.78,1.15,4.09,1.14,5.87-.02,2.91-1.9,7.35-6.24,10.26-15.82.5-1.64-.72-3.3-2.43-3.3h-21.58Z"/><path d="m24.39,39.88c0,3.55.15,6.78.42,9.74.12,1.31,1.22,2.31,2.53,2.31h26.39c1.31,0,2.41-1,2.53-2.3.27-2.96.42-6.19.42-9.74s-.15-6.76-.42-9.7c-.12-1.31-1.22-2.31-2.53-2.31h-26.4c-1.32,0-2.42,1-2.53,2.31-.27,2.95-.42,6.17-.42,9.7Z"/><path d="m16.55,19.88c1.16,0,2.17-.79,2.46-1.91.89-3.46,1.96-6.28,3.08-8.56,1.17-2.39-1.6-4.74-3.79-3.22-3.86,2.69-8.02,6.36-11.39,11.21-.73,1.04.05,2.47,1.32,2.47h8.32Z"/><path d="m16.51,59.91h-8.37c-1.27,0-2.04,1.43-1.32,2.47,3.38,4.91,7.57,8.62,11.46,11.33,2.18,1.52,4.95-.82,3.79-3.22-1.13-2.31-2.2-5.17-3.1-8.67-.29-1.12-1.3-1.91-2.46-1.91Z"/><path d="m16.6,39.96c0-3.39.13-6.49.37-9.33.12-1.49-1.04-2.76-2.53-2.76H3.71c-1.17,0-2.18.79-2.47,1.92-.79,3.1-1.24,6.48-1.24,10.17s.44,6.98,1.2,10.04c.28,1.13,1.3,1.93,2.47,1.93h10.75c1.49,0,2.65-1.27,2.53-2.75-.23-2.81-.36-5.87-.36-9.21Z"/></svg>