<?xml version="1.0" encoding="UTF-8"?><svg xmlns="http://www.w3.org/2000/svg" viewBox="0 0 14.47 15.25"><path d="m12.57,5.5c-.2.46-.41.25-.46-.15-.04-.35-.14-.69-.24-.85-.1-.2-.5-.5-.7-.5-.3-.1-.7-.1-1,0-.25.1-.6.3-.7.5-.09.17-.13.42-.17.67-.04.23-.19.16-.22.01-.06-.32-.15-.65-.31-.89-.18-.24-.44-.43-.8-.5-.33-.06-.6,0-.9.1-.4.1-.6.5-.7.8-.02.09-.03.2-.04.31,0,.16-.11.16-.15-.03-.1-.52-.21-1.1-.31-1.58-.1-.8-.3-1.5-.5-2-.1-.3-.4-1-.9-1.3-.4-.2-1-.1-1.3.2-.4.4-.4,1.3-.3,1.8.1.4.2,1.2.3,1.5.1.5.2.8.3,1.3.1.4.2.5.3,1.1.18.7.27,1.41.36,1.91.07.24-.05.24-.16.09-.2-.2-.2-.3-.4-.5-.2-.2-.5-.6-.7-.8-.4-.3-.9-.7-1.4-.7-.7,0-1.3.5-1.4,1.1-.1.4-.1.6.1,1,.3.4,1.2,1.4,1.5,1.9.32.48.55.9.75,1.25.26.47.64.87,1.09,1.15l.46.29,1.1,1.1c.24.24.26.7.24,1.02-.01.2.14.38.35.38.95.02,2.1.08,2.71,0,.4,0,.9-.25,1.1-.65.2-.3.5-.3.7,0,.1.3.6.55,1,.65.4.1,1.2,0,1.2,0,0,0-.1-.5-.1-.9s0-.4.1-1c.1-.6,1.2-1.8,1.2-1.8.3-.4.6-1.1.7-1.4.1-.4.2-1.3.2-1.7v-2.3c-.1-1.4-1.48-1.57-1.9-.6Zm-5.13,6.76c0,.23-.18.41-.41.41s-.41-.18-.41-.41v-3.74c0-.23.18-.41.41-.41s.41.18.41.41v3.74Zm1.71.41h-.01c-.22,0-.41-.18-.41-.4l-.11-3.74c0-.23.17-.42.4-.42.21-.02.42.17.42.4l.11,3.74c0,.23-.17.42-.4.42Zm2.4-.41c0,.23-.18.41-.41.41s-.41-.18-.41-.41v-3.74c0-.23.18-.41.41-.41s.41.18.41.41v3.74Z"/></svg>