<?xml version="1.0" encoding="UTF-8"?><svg xmlns="http://www.w3.org/2000/svg" viewBox="0 0 31.9 31.85"><path d="m4.8,31c-.57.57-1.23.85-1.98.85s-1.41-.28-1.98-.85-.85-1.22-.85-1.95.28-1.38.85-1.95l6.6-6.6-5.3-1.75c-.37-.13-.54-.38-.53-.75s.21-.6.58-.7l16.35-4.9c.27-.07.51,0,.73.23s.29.46.23.73l-4.9,16.35c-.1.37-.33.56-.7.58s-.62-.16-.75-.53l-1.75-5.3-6.6,6.55ZM31.9,12c0,2.63-.77,5-2.3,7.1s-3.53,3.55-6,4.35c-.4.13-.78.1-1.15-.1s-.62-.5-.75-.9-.1-.78.1-1.15.5-.62.9-.75c1.8-.57,3.28-1.63,4.45-3.2s1.75-3.35,1.75-5.35c0-2.5-.88-4.63-2.63-6.38s-3.88-2.63-6.38-2.63c-2.03,0-3.83.58-5.38,1.75s-2.61,2.65-3.18,4.45c-.13.4-.38.7-.75.9s-.75.23-1.15.1-.69-.38-.88-.75c-.18-.37-.21-.75-.08-1.15.8-2.43,2.23-4.43,4.28-5.98s4.43-2.33,7.13-2.33c3.33,0,6.17,1.17,8.5,3.5s3.5,5.17,3.5,8.5Z"/></svg>