<?xml version="1.0" encoding="UTF-8"?><svg xmlns="http://www.w3.org/2000/svg" viewBox="0 0 350.4 350.4"><path d="m181.08,181.82l-95.27,13.41c-16.71,2.35-33.65-2.36-46.75-13.01l-31.07-25.26c-14.77-12-7.87-35.86,11.03-38.13l82.59-9.92c5.88-.71,11.03-4.3,13.71-9.59l40.6-79.94c8.08-15.9,30.88-15.67,38.63.39l37.94,78.6c2.66,5.51,7.96,9.26,14.04,9.93l84.66,9.34c18.13,2,25.73,24.2,12.64,36.9l-62.77,60.88c-3.99,3.87-5.94,9.38-5.26,14.9l10.8,88.27c2.14,17.46-16.41,29.99-31.82,21.49l-71.64-39.55c-5.21-2.88-11.52-2.95-16.79-.2l-69.73,36.39c-15.5,8.09-33.67-4.66-31.34-21.99l5.19-38.57c2.67-19.81,14.92-37.04,32.76-46.07l80.26-40.6c4.11-2.08,2.16-8.32-2.41-7.68Z"/></svg>