<?xml version="1.0" encoding="UTF-8"?><svg xmlns="http://www.w3.org/2000/svg" viewBox="0 0 99.91 90.89"><path d="m98.02,1.25c-1.7-1.45-4.38-1.65-7.15-.54h0C87.96,1.88,8.47,35.97,5.24,37.36c-.59.2-5.73,2.12-5.2,6.39.47,3.85,4.6,5.45,5.11,5.63l20.21,6.92c1.34,4.46,6.28,20.93,7.38,24.44.68,2.19,1.79,5.07,3.74,5.67,1.71.66,3.41.06,4.51-.81l12.35-11.46,19.94,15.55.47.28c1.35.6,2.65.9,3.89.9.96,0,1.87-.18,2.75-.54,2.99-1.23,4.18-4.07,4.31-4.4l14.9-77.43c.91-4.14-.35-6.24-1.58-7.27Zm-54.84,57.82l-6.82,18.18-6.82-22.72L81.8,15.9l-38.63,43.17Z"/></svg>