<?xml version="1.0" encoding="UTF-8"?><svg xmlns="http://www.w3.org/2000/svg" viewBox="0 0 82.03 79.43"><path d="m78.03,55.43h-5.01v-15.96c0-8.86-7.18-16.04-16.04-16.04h-11.95v-8.46c2.41-1.38,4.04-3.97,4.04-6.95,0-4.42-3.59-8.01-8.01-8.01s-8.01,3.59-8.01,8.01c0,2.96,1.61,5.53,3.99,6.92v8.49h-11.96c-8.86,0-16.04,7.18-16.04,16.04v15.96h-5.01c-2.21,0-4,1.79-4,4s1.79,4,4,4h5.01v8.12c0,4.35,3.53,7.88,7.88,7.88h48.24c4.35,0,7.88-3.53,7.88-7.88v-8.12h5.01c2.21,0,4-1.79,4-4s-1.79-4-4-4Zm-57.73-10.37c0-3.47,2.81-6.29,6.29-6.29s6.29,2.81,6.29,6.29-2.81,6.29-6.29,6.29-6.29-2.81-6.29-6.29Zm33.47,22.37c0,2.21-1.79,4-4,4h-17.5c-2.21,0-4-1.79-4-4v-.16c0-2.21,1.79-4,4-4h17.5c2.21,0,4,1.79,4,4v.16Zm1.74-16.09c-3.47,0-6.29-2.81-6.29-6.29s2.81-6.29,6.29-6.29,6.29,2.81,6.29,6.29-2.81,6.29-6.29,6.29Z"/></svg>