<?xml version="1.0" encoding="UTF-8"?><svg xmlns="http://www.w3.org/2000/svg" viewBox="0 0 50 41.47"><path d="m44.61,37.3c.86-2.62,4.86-28.79,5.36-33.94.15-1.56-.34-2.6-1.31-3.06-1.17-.56-2.9-.28-4.91.44C41,1.73,5.79,16.68,3.75,17.55c-1.93.82-3.75,1.71-3.75,3.01,0,.91.54,1.42,2.03,1.95,1.55.55,5.45,1.74,7.75,2.37,2.22.61,4.74.08,6.16-.8,1.5-.93,18.82-12.52,20.06-13.54,1.24-1.02,2.23.29,1.22,1.3-1.02,1.02-12.9,12.55-14.47,14.15-1.9,1.94-.55,3.95.72,4.75,1.46.92,11.94,7.95,13.52,9.08s3.18,1.64,4.65,1.64,2.24-1.93,2.97-4.17Z"/></svg>