<?xml version="1.0" encoding="UTF-8"?><svg id="a" xmlns="http://www.w3.org/2000/svg" viewBox="0 0 220 220"><defs><style>.b{fill:#fff;}.c{isolation:isolate;opacity:.7;}.c,.d,.e{fill:none;stroke:#000;stroke-linejoin:round;stroke-width:7px;}.c,.e{stroke-linecap:round;}.f{fill:#f8ff2e;}.g{fill:#f70006;}.h{fill:#17ff39;}</style></defs><rect x="33.64" y="44.56" width="152.71" height="130.89" rx="15" ry="15"/><rect class="b" x="46.58" y="64.57" width="126.82" height="97.86" rx="7.44" ry="7.44"/><circle class="h" cx="81.75" cy="55.24" r="5.03"/><circle class="f" cx="66.7" cy="55.24" r="5.03"/><circle class="g" cx="51.65" cy="55.24" r="5.03"/><polyline class="e" points="133.22 105.26 115.73 105.26 115.73 114 133.22 114 133.22 122.75 115.73 122.75"/><rect class="e" x="86.9" y="105.26" width="17.49" height="17.49"/><polyline class="e" points="58.27 122.75 58.27 105.26 75.76 105.26 75.76 122.75"/><rect class="e" x="144.74" y="76.71" width="17.49" height="17.49"/><polyline class="e" points="115.73 94.19 115.73 76.71 133.22 76.71"/><line class="e" x1="104.53" y1="76.71" x2="104.53" y2="94.19"/><line class="e" x1="87.04" y1="94.19" x2="87.04" y2="76.71"/><line class="d" x1="104.53" y1="85.46" x2="87.04" y2="85.46"/><polyline class="e" points="75.76 94.19 58.27 94.19 58.27 76.71 75.76 76.71"/><rect class="c" x="144.74" y="105.26" width="17.49" height="17.49"/><rect class="c" x="86.97" y="105.26" width="17.49" height="17.49"/><rect class="c" x="58.27" y="133.81" width="17.49" height="17.49"/><rect class="c" x="115.73" y="133.81" width="17.49" height="17.49"/><rect class="c" x="86.97" y="133.81" width="17.49" height="17.49"/></svg>