<svg fill="#eee" xmlns="http://www.w3.org/2000/svg" viewBox="0 0 430 430"><g id="b"><path d="m276.65,103.27h74.86c14.39,0,26.05,11.66,26.05,26.05v172.73c0,14.39-11.66,26.05-26.05,26.05H78.49c-14.39,0-26.05-11.66-26.05-26.05v-172.73c0-14.39,11.66-26.05,26.05-26.05h74.63c1.89,0,3.59,1.11,4.35,2.83l4.94,11.11c1.4,3.15-.91,6.7-4.35,6.7h-75.51c-5.11,0-9.26,4.14-9.26,9.26v164.82c0,5.11,4.14,9.26,9.26,9.26h264.87c5.11,0,9.26-4.14,9.26-9.26v-164.82c0-5.11-4.14-9.26-9.26-9.26h-75.7c-3.45,0-5.76-3.55-4.35-6.7l4.94-11.11c.77-1.72,2.48-2.83,4.35-2.83Z"/><path d="m216.23,124.53c-.98.5-2.14.5-3.13,0l-30.98-15.7c-1.12-.57-2.44.25-2.44,1.49v18.42c0,.52.23,1.01.65,1.32,2.84,2.18,14.83,10.48,34.24,10.48,20.89,0,31.37-8.68,34.02-10.56.55-.39,1.05-.88,1.05-1.56v-18.09c0-1.25-1.32-2.07-2.44-1.49l-30.98,15.7h.01Z"/><path d="m265.59,93.2l-49.36,25.01c-.98.5-2.14.5-3.13,0l-49.36-25.01c-2.51-1.27-2.54-4.84-.04-6.16l49.33-25.97c1.01-.53,2.22-.53,3.22,0l49.36,25.97c2.49,1.31,2.47,4.89-.04,6.16h.01Z"/><rect x="233.59" y="252.94" width="61.47" height="23.02" rx="5.34" ry="5.34"/><rect x="233.59" y="166.81" width="99.46" height="23.02" rx="5.34" ry="5.34"/><rect x="233.59" y="209.88" width="99.46" height="23.02" rx="5.34" ry="5.34"/><circle cx="143.67" cy="196.84" r="30.03"/><path d="m188.39,275.96h-89.43c-3.19,0-5.68-2.8-5.3-5.97,2.96-25,24.22-44.4,50.02-44.4s47.07,19.4,50.02,44.4c.37,3.17-2.11,5.97-5.3,5.97Z"/></g></svg>
