<?xml version="1.0" encoding="UTF-8"?><svg xmlns="http://www.w3.org/2000/svg" viewBox="0 0 712.8 712.8"><g id="a"><rect x="100.4" y="164.4" width="512" height="384" rx="85" ry="85" style="fill:#ab9fff;"/><path d="m612.4,293.4H100.4s0-51.2,0-51.2c0-42.97,34.83-77.8,77.8-77.8h356.4c42.97,0,77.8,34.83,77.8,77.8v51.2Z" style="fill:#aeaeff;"/><path d="m486.4,293.4H100.4s0-51.2,0-51.2c0-42.97,34.83-77.8,77.8-77.8h230.4c42.97,0,77.8,34.83,77.8,77.8v51.2Z" style="fill:#8080ff;"/><path d="m350.4,293.4H100.4s0-50.2,0-50.2c0-42.97,34.83-77.8,77.8-77.8h94.4c42.97,0,77.8,34.83,77.8,77.8v50.2Z" style="fill:#66f;"/></g><g id="b"><rect x="331.4" y="437.69" width="224.75" height="55.71" rx="27.86" ry="27.86" style="fill:#fff;"/><rect x="331.4" y="337.4" width="131" height="55.71" rx="27.86" ry="27.86" transform="translate(793.8 730.51) rotate(-180)" style="fill:#fff;"/><rect x="499.94" y="337.4" width="55.71" height="55.71" rx="27.86" ry="27.86" transform="translate(1055.59 730.51) rotate(-180)" style="fill:#fff;"/><rect x="160.14" y="337.74" width="133.26" height="155.66" rx="27.86" ry="27.86" style="fill:#fff;"/></g></svg>