<?xml version="1.0" encoding="UTF-8"?><svg xmlns="http://www.w3.org/2000/svg" viewBox="0 0 24 24"><g id="b"><path d="m3.5,8c-.83,0-1.5.67-1.5,1.5v6c0,.83.67,1.5,1.5,1.5s1.5-.67,1.5-1.5v-6c0-.83-.67-1.5-1.5-1.5Z"/><path d="m20.5,8c-.83,0-1.5.67-1.5,1.5v6c0,.83.67,1.5,1.5,1.5s1.5-.67,1.5-1.5v-6c0-.83-.67-1.5-1.5-1.5Z"/><path d="m17.5,8H6.5c-.28,0-.5.22-.5.5v8.5c0,1.1.9,2,2,2v3.5c0,.83.67,1.5,1.5,1.5s1.5-.67,1.5-1.5v-3.5h2v3.5c0,.83.67,1.5,1.5,1.5s1.5-.67,1.5-1.5v-3.5c1.1,0,2-.9,2-2v-8.5c0-.28-.22-.5-.5-.5Z"/><path d="m6,6.46c-.02.28.18.52.46.54.01,0,.03,0,.04,0h10.97c.28,0,.5-.22.5-.5,0-.01,0-.03,0-.04-.16-1.71-1.05-3.27-2.43-4.28l.88-1.42c.15-.23.07-.54-.16-.69-.23-.15-.54-.07-.69.16h0l-.88,1.42c-1.69-.87-3.69-.87-5.38,0l-.89-1.41c-.15-.23-.46-.31-.69-.16-.23.15-.31.46-.16.69l.88,1.41c-1.39,1.01-2.28,2.57-2.45,4.28Zm8.5-2.46c.28,0,.5.22.5.5s-.22.5-.5.5-.5-.22-.5-.5.22-.5.5-.5Zm-4.5.5c0,.28-.22.5-.5.5s-.5-.22-.5-.5.22-.5.5-.5.5.22.5.5Z"/></g></svg>