<?xml version="1.0" encoding="UTF-8"?><svg xmlns="http://www.w3.org/2000/svg" viewBox="0 0 118.06 118.06"><defs><style>.c{fill-rule:evenodd;}</style></defs><g id="b"><path class="c" d="m5.4,118.06h44.87c2.64,0,4.79-2.15,4.79-4.79v-44.87c0-2.64-2.15-4.79-4.79-4.79H5.4c-2.64,0-4.79,2.15-4.79,4.79v44.87c0,2.64,2.15,4.79,4.79,4.79Zm62.39-63.61h44.87c2.64,0,4.79-2.15,4.79-4.79V4.79c0-2.64-2.15-4.79-4.79-4.79h-44.87c-2.64,0-4.79,2.15-4.79,4.79v44.87c0,2.64,2.15,4.79,4.79,4.79Zm8.11-9.84h28.66c1.67,0,3.06-1.39,3.06-3.06V12.9c0-1.67-1.39-3.06-3.06-3.06h-28.66c-1.67,0-3.06,1.39-3.06,3.06v28.66c0,1.67,1.39,3.06,3.06,3.06ZM5.4,54.45h44.87c2.64,0,4.79-2.15,4.79-4.79V4.79c0-2.64-2.15-4.79-4.79-4.79H5.4C2.76,0,.61,2.15.61,4.79v44.87c0,2.64,2.15,4.79,4.79,4.79Zm62.39,63.61h44.87c2.64,0,4.79-2.15,4.79-4.79v-44.87c0-2.64-2.15-4.79-4.79-4.79h-44.87c-2.64,0-4.79,2.15-4.79,4.79v44.87c0,2.64,2.15,4.79,4.79,4.79Z"/></g></svg>