<?xml version="1.0" encoding="UTF-8"?><svg xmlns="http://www.w3.org/2000/svg" viewBox="0 0 448.01 448.01"><path d="m16,27.49v393c0,2.39,1.95,4.32,4.34,4.32,1.13,0,2.22-.45,3.03-1.25l204.63-199.56L23.37,24.42c-1.7-1.68-4.44-1.66-6.12.04-.8.81-1.24,1.89-1.25,3.03Z"/><path d="m313.8,142L57.22.64l-.16-.09c-4.42-2.4-8.62,3.58-5,7.06l201.13,192.32,60.61-57.93Z"/><path d="m52.08,440.39c-3.64,3.48.56,9.46,5,7.06l.16-.09,256.56-141.36-60.61-57.95L52.08,440.39Z"/><path d="m417.38,199l-71.65-39.46-67.37,64.46,67.37,64.43,71.65-39.43c19.49-10.77,19.49-39.23,0-50Z"/></svg>