<?xml version="1.0" encoding="UTF-8"?><svg xmlns="http://www.w3.org/2000/svg" viewBox="0 0 512 512"><path d="m429.3,93.38l-74.63-74.64c-12.07-12-28.37-18.74-45.27-18.74h-181.4c-35.35,0-64,28.65-64,64v384c0,35.34,28.66,64,64.01,64h255.99c35.2,0,64-28.8,64-64V138.6c0-16.9-6.7-33.2-18.7-45.22Zm-30.2,354.62c0,8.84-6.26,16-15.1,16h-255.98c-8.84,0-16-7.16-16-16l-.02-383.87c0-8.84,7.16-16,16-16h160v79.87c0,17.67,14.33,32,32,32h79.1v288Z"/><path d="m201.38,265.05c-6.9-6.9-18.08-6.9-24.98,0l-42.4,42.4c-6.9,6.9-6.9,18.11,0,25.01l42.4,42.4c3.52,3.52,8.02,5.2,12.53,5.2s9.04-1.71,12.49-5.16c6.9-6.9,6.9-18.11,0-25.01l-29.89-29.9,29.91-29.89c6.13-6.94,6.13-18.07-.05-25.05Z"/><path d="m309.76,265.05c-6.9,6.9-6.9,18.11,0,25.01l29.86,29.94-29.91,29.89c-6.9,6.9-6.9,18.11,0,25.01,3.5,3.49,8,5.17,12.51,5.17s9.04-1.71,12.49-5.16l42.4-42.4c6.9-6.9,6.9-18.11,0-25.01l-42.4-42.4c-6.93-6.93-18.06-6.93-24.95-.04Z"/><rect x="173.06" y="302.47" width="165" height="35" rx="17.5" ry="17.5" transform="translate(-131.07 454.93) rotate(-70.63)"/></svg>