<?xml version="1.0" encoding="UTF-8"?><svg xmlns="http://www.w3.org/2000/svg" viewBox="0 0 448 512"><path d="m368,192c-32.79,0-60.89,19.77-73.25,48h-70.75c-53.57,0-98.37-37.87-109.3-88.2,26.7-12.9,45.3-40.1,45.3-71.8C160,35.82,124.2,0,80,0S0,35.82,0,80c0,32.79,19.77,60.89,48,73.25v205.5C19.77,371.1,0,399.2,0,432c0,44.2,35.82,80,80,80s80-35.8,80-80c0-32.79-19.77-60.89-48-73.25v-95.05c30.5,25.1,69.5,40.3,112,40.3h70.75c12.35,28.2,40.45,48,73.25,48,44.18,0,80-35.82,80-80s-35.8-80-80-80ZM80,56c13.23,0,24,10.77,24,24s-10.77,24-24,24-24-10.77-24-24,10.77-24,24-24Zm0,400c-13.23,0-24-10.77-24-24s10.77-24,24-24,24,10.77,24,24-10.77,24-24,24Zm288-160c-13.23,0-24-10.77-24-24s10.77-24,24-24,24,10.77,24,24-10.8,24-24,24Z"/></svg>