<?xml version="1.0" encoding="UTF-8"?><svg xmlns="http://www.w3.org/2000/svg" viewBox="0 0 462 462"><path d="m320.14,462h-71.14c-13.79,0-25-11.21-25-25v-27.71c0-8.53-4.13-14.36-7.6-17.74-6.45-6.3-15.88-9.79-25.86-9.54-17.63.41-32.54,16.01-32.54,34.07v20.93c0,13.79-11.21,25-25,25H62.62c-34.46-.1-62.52-28.16-62.62-62.55v-70.45c0-13.79,11.21-25,25-25h27.71c7.27,0,14.41-3.18,20.1-8.96,6.6-6.7,10.32-15.76,10.19-24.87-.24-17.14-14.77-32.17-31.09-32.17h-26.91c-13.79,0-25-11.21-25-25v-70.38c.1-34.46,28.16-62.52,62.55-62.62h56.31v-7.48c0-.42,0-.83.01-1.25.34-19.38,8.2-37.46,22.14-50.92C154.95,6.9,173.32-.32,192.66.01c39.28.68,71.24,33.57,71.24,73.33v6.66h56.24c34.11,0,61.86,27.75,61.86,61.86v56.24h6.66c40.44,0,73.34,32.14,73.34,71.64s-32.53,73.4-72.52,73.4h-7.48v57c0,34.11-27.75,61.86-61.86,61.86ZM46,350v49.38c.03,9.11,7.51,16.59,16.69,16.62h49.31c.04-43.11,34.77-78.98,77.46-79.98,22.29-.5,43.84,7.73,59.09,22.63,13.83,13.52,21.45,31.5,21.45,50.65v6.71h50.14c8.75,0,15.86-7.12,15.86-15.86v-78c0-13.79,11.21-25,25-25h28.48c14.62,0,26.52-12.29,26.52-27.4s-12.01-25.64-27.34-25.64h-27.66c-13.79,0-25-11.22-25-25v-77.24c0-8.75-7.12-15.86-15.86-15.86h-77.24c-13.79,0-25-11.21-25-25v-27.66c0-14.82-11.68-27.08-26.04-27.33-14.67-.27-26.74,11.43-27,26.06v.45s0,28.48,0,28.48c0,13.79-11.21,25-25,25H62.62c-9.11.03-16.59,7.51-16.62,16.69v49.31h5.91c20.36,0,39.67,8.29,54.36,23.35,14.37,14.72,22.44,33.97,22.72,54.18.3,21.34-8.24,42.41-23.43,57.81-14.41,14.61-33.18,22.66-52.86,22.66h-6.71Z"/></svg>