<?xml version="1.0" encoding="UTF-8"?><svg xmlns="http://www.w3.org/2000/svg" viewBox="0 0 42.4 42.4"><path d="m19.05,36.6v-14.28l-12.4-7.17v14.23l12.4,7.22Zm4.25,0l12.4-7.22v-14.23l-12.4,7.21v14.24Zm-2.15-17.8l12.25-7.15-12.25-7.1-12.25,7.1,12.25,7.15Zm-16.75,14.55c-.81-.45-1.39-1.02-1.76-1.73-.36-.7-.54-1.43-.54-2.17V12.95c0-.78.18-1.52.54-2.22.36-.7.95-1.28,1.76-1.73L18.9.6c.73-.4,1.48-.6,2.25-.6s1.54.2,2.3.6l14.5,8.4c.78.45,1.36,1.02,1.76,1.73.4.7.59,1.44.59,2.22v16.5c0,.75-.2,1.47-.59,2.17-.4.7-.98,1.28-1.76,1.73l-14.5,8.4c-.78.43-1.55.65-2.32.65s-1.51-.22-2.23-.65l-14.5-8.4Z"/></svg>