<?xml version="1.0" encoding="UTF-8"?><svg xmlns="http://www.w3.org/2000/svg" viewBox="0 0 41.75 41.75"><path d="m15.84,16.3l2.05.78c.19.07.41,0,.51-.18l1.44-2.45c.1-.17.07-.39-.08-.53l-1.76-1.6c-.11-.1-.16-.26-.12-.41.12-.49.18-.99.18-1.51s-.06-1.02-.18-1.51c-.04-.15,0-.31.12-.41l1.76-1.6c.15-.13.18-.36.08-.53l-1.44-2.45c-.1-.18-.32-.25-.51-.18l-2.08.78c-.15.06-.31.02-.43-.09-.36-.33-.77-.61-1.24-.85-.47-.24-.96-.46-1.44-.64-.14-.05-.24-.18-.27-.33l-.31-2.24c-.03-.21-.21-.36-.42-.36h-2.96c-.21,0-.39.16-.42.36l-.31,2.24c-.02.15-.12.27-.27.33-.49.18-.96.4-1.42.64-.46.24-.88.53-1.26.86-.12.1-.28.13-.42.08l-2.08-.79c-.19-.07-.41,0-.51.18l-1.45,2.45c-.1.17-.07.39.08.53l1.73,1.61c.11.1.15.25.12.39-.1.52-.15,1.04-.15,1.55s.05,1,.15,1.49c.03.14-.01.29-.12.39l-1.73,1.61c-.15.14-.18.35-.08.53l1.45,2.45c.1.18.32.25.51.18l2.07-.78c.15-.06.32-.02.44.1.36.35.77.64,1.24.88.47.24.94.44,1.42.6.15.05.26.18.29.34l.31,2.22c.03.21.21.36.42.36h2.96c.21,0,.39-.16.42-.36l.31-2.23c.02-.16.13-.29.28-.33.48-.15.96-.35,1.43-.57.47-.23.88-.52,1.23-.89.12-.12.29-.17.45-.11Zm-2.39-2.65c-.88.87-1.96,1.3-3.22,1.3s-2.34-.43-3.23-1.3c-.88-.87-1.32-1.95-1.32-3.25s.44-2.34,1.32-3.22,1.96-1.33,3.23-1.33,2.34.44,3.22,1.33c.88.88,1.33,1.96,1.33,3.22s-.44,2.38-1.33,3.25Z"/><path d="m41.07,32.57l-2.1-1.9c-.12-.11-.16-.27-.12-.42.19-.69.28-1.41.28-2.15s-.09-1.46-.28-2.15c-.04-.15,0-.32.12-.42l2.09-1.85c.15-.13.19-.36.08-.53l-2.01-3.41c-.1-.17-.3-.25-.49-.19l-2.62.78c-.16.05-.33,0-.43-.13-.52-.61-1.12-1.11-1.77-1.52-.65-.4-1.36-.66-2.12-.79-.17-.03-.31-.15-.35-.32l-.62-2.79c-.04-.19-.21-.33-.41-.33h-3.97c-.2,0-.37.14-.41.33l-.62,2.81c-.03.16-.16.28-.32.31-.74.17-1.43.46-2.09.84-.66.39-1.25.87-1.77,1.45-.11.12-.27.17-.43.12l-2.63-.78c-.19-.06-.39.02-.49.19l-2.01,3.41c-.1.17-.07.4.08.53l2.09,1.85c.12.11.17.27.12.42-.19.69-.28,1.41-.28,2.15s.09,1.46.28,2.15c.04.15,0,.31-.12.42l-2.1,1.89c-.15.14-.18.36-.08.53l2,3.36c.1.17.3.25.49.19l2.61-.82c.16-.05.34,0,.44.14.5.6,1.08,1.08,1.75,1.45s1.39.66,2.13.86c.15.04.27.16.3.31l.62,2.82c.04.19.21.33.41.33h3.97c.2,0,.37-.14.41-.33l.62-2.82c.03-.15.15-.27.31-.31.77-.2,1.5-.48,2.17-.84.67-.36,1.25-.84,1.75-1.47.11-.14.29-.2.46-.14l2.6.85c.19.06.4-.02.5-.19l2-3.41c.1-.17.07-.39-.08-.53Zm-7.86.6c-1.3,1.25-2.86,1.9-4.67,1.93-1.95.04-3.88-.76-5.23-2.17-1.25-1.3-1.9-2.86-1.93-4.67-.04-1.95.76-3.88,2.17-5.23,1.3-1.25,2.86-1.9,4.67-1.93,1.95-.04,3.88.76,5.23,2.17,1.25,1.3,1.9,2.86,1.93,4.67.04,1.95-.76,3.88-2.17,5.23Z"/></svg>